<?xml version="1.0" encoding="UTF-8"?>
<svg id="Layer_1" data-name="Layer 1" xmlns="http://www.w3.org/2000/svg" viewBox="0 0 2072.2 2072.2">
  <defs>
    <style>
      .cls-1 {
        fill-rule: evenodd;
      }

      .cls-1, .cls-2 {
        fill: #607d8b;
        stroke-width: 0px;
      }
    </style>
  </defs>
  <g id="_549623320" data-name=" 549623320">
    <g>
      <path id="_549624160" data-name=" 549624160" class="cls-1" d="m1441.7,1607.7h-811.2c-13.3,0-23.8-10.5-23.8-23.8v-96.8c0-18.3,7.2-35.7,20.4-48.8,13.2-13.2,30.5-20.4,48.8-20.4h366.5c17.7,84,92.2,147.1,181.5,147.1s163.4-62.8,181.3-146.5c15,1.9,29,8.8,40,19.8,13.2,13.2,20.4,30.5,20.4,48.8v96.8c0,13.4-10.5,23.8-23.9,23.8h0Zm-433.9-107.9h-64.7c-6.6,0-11.9-5.4-11.9-11.9s5.4-11.9,11.9-11.9h64.7c6.6,0,11.9,5.4,11.9,11.9s-5.3,11.9-11.9,11.9Zm-103.4,0h-228.5c-6.5,0-11.9-5.4-11.9-11.9s5.4-11.9,11.9-11.9h228.5c6.6,0,11.9,5.4,11.9,11.9,0,6.6-5.4,11.9-11.9,11.9Z"/>
      <path id="_549623824" data-name=" 549623824" class="cls-1" d="m1038.7,1390.8h-198.6c-25.8,0-46.9-21.1-46.9-46.9s21.1-46.1,46.9-46.1h217.2c-12.2,24.7-19,52.5-19,81.8.1,3.7.2,7.5.4,11.2h0Z"/>
      <path id="_549624136" data-name=" 549624136" class="cls-1" d="m1312.7,1216.8c6.6-19,10-39,10-59.3,0-74.7-45.8-141.2-113.6-168.2,5.4-3.9,10.6-8.3,15.4-13.2,23.1-23.4,35.7-54.4,35.7-87.3,0-11.5-1.6-22.7-4.6-33.3,120.7,51.1,200.3,169.9,200.3,302.1,0,39.3-6.8,77.7-20.2,114.1-8.3,22.3-18.9,43.6-31.7,63.5-12.6-51.1-46.3-93.8-91.3-118.4h0Z"/>
      <path id="_549623536" data-name=" 549623536" class="cls-1" d="m1137.3,1000.4c-61.6,0-111.6-50.1-111.6-111.6s50.1-110.9,111.6-110.9,110.9,49.7,110.9,110.9c0,29.8-11.5,57.8-32.3,78.9-20.9,21.1-48.8,32.7-78.6,32.7h0Zm0-53.6c-32,0-58.1-26.1-58.1-58.1s26-57.3,58.1-57.3,58.1,25.7,58.1,57.3c0,32.1-26.1,58.1-58.1,58.1Zm0-91.5c-18.9,0-34.2,15-34.2,33.5s15.3,34.2,34.2,34.2,34.2-15.3,34.2-34.2c.1-18.5-15.3-33.5-34.2-33.5Z"/>
      <path id="_549622912" data-name=" 549622912" class="cls-1" d="m1017.1,1091.2c-6.6,0-13.1-1.8-19.1-5.2l-145.7-84c-8.9-4.8-15.2-12.7-18-22.6-2.8-9.9-1.4-20.7,3.8-29.6l180.1-312.5s0-.1.1-.1c5.2-8.9,13.5-15.2,23.4-17.9,10-2.7,20.4-1.3,29.2,3.9l145.1,84.1s.1,0,.1.1c8.9,5.2,15.2,13.5,17.9,23.4,2.7,10,1.3,20.3-3.9,29.2l-17.9,31.6c-20.8-16.1-46.8-25.7-75.1-25.7-67.8,0-123.6,54.8-123.6,122.8,0,51.4,31.6,95.6,76.4,114.2-3.4,5.8-40,69-40,69-6.7,11.7-19.2,19.3-32.8,19.3h0Z"/>
      <path id="_549623200" data-name=" 549623200" class="cls-1" d="m1185.7,715.4c-2,0-4.1-.5-6-1.6-5.7-3.3-7.6-10.6-4.2-16.3l43.2-73.7c3.3-5.7,10.6-7.6,16.3-4.2,5.7,3.4,7.6,10.6,4.2,16.3l-43.2,73.7c-2.2,3.7-6.2,5.8-10.3,5.8h0Zm-96-55.8c-2,0-4.1-.5-6-1.6-5.7-3.3-7.7-10.6-4.4-16.2l42.4-73.7c3.3-5.7,10.6-7.7,16.2-4.4,5.7,3.3,7.7,10.6,4.4,16.2l-42.4,73.7c-2.1,3.8-6.1,6-10.2,6Z"/>
      <path id="_549623488" data-name=" 549623488" class="cls-1" d="m1275.6,665.9c-5.4,0-10.8-1.4-15.6-4.2l-171.8-99c-7.1-4.2-12.1-10.7-14.2-18.5-2.1-7.8-1-16,3.2-23.1l23.8-40.9c4.1-7,10.5-12.1,18.1-14.4,8-2.5,16.4-1.5,23.5,2.7l171.9,99.7c7.1,4.2,12.1,10.7,14.2,18.5s1,15.9-3.1,23l-23,40.9c0,.1-.1.1-.1.2-4.2,7.1-10.9,12.1-19,14.2-2.7.5-5.3.9-7.9.9h0Z"/>
      <path id="_549623104" data-name=" 549623104" class="cls-1" d="m948.8,1129.5c-3.4,0-6.8-.9-9.8-2.7l-92-53.4c-5-2.6-8.6-7.1-10-12.5-1.4-5.4-.4-11.2,2.6-16.1l23.7-41.4c3.3-5.7,10.6-7.7,16.2-4.5,5.7,3.3,7.7,10.6,4.5,16.2l-22.3,39.1,85.9,49.9,23-39.1c3.3-5.7,10.6-7.5,16.3-4.2,5.7,3.4,7.5,10.6,4.2,16.3l-24.4,41.5c-2.6,4.9-7.1,8.6-12.3,10.1-2,.5-3.8.8-5.6.8Z"/>
      <path id="_549623416" data-name=" 549623416" class="cls-1" d="m1385.5,1379.6c0-89.3-72.4-161.6-161.6-161.6s-161.6,72.4-161.6,161.6,72.4,161.6,161.6,161.6,161.6-72.4,161.6-161.6Z"/>
    </g>
    <path id="_549623248" data-name=" 549623248" class="cls-2" d="m1036.1,0c286.1,0,545.1,116,732.6,303.5,187.5,187.5,303.5,446.5,303.5,732.6s-116,545.1-303.5,732.6-446.5,303.5-732.6,303.5-545.1-116-732.6-303.5S0,1322.2,0,1036.1,116,491,303.5,303.5C491,116,750,0,1036.1,0Zm686.9,349.3c-175.8-175.8-418.7-284.5-686.9-284.5s-511.1,108.7-686.8,284.5c-175.8,175.8-284.5,418.6-284.5,686.8s108.7,511.1,284.5,686.8c175.8,175.8,418.6,284.5,686.8,284.5s511.1-108.7,686.8-284.5c175.8-175.8,284.5-418.6,284.5-686.8,0-268.2-108.7-511.1-284.4-686.8Z"/>
  </g>
</svg>